<svg xmlns="http://www.w3.org/2000/svg" width="256" height="256" viewBox="0 0 64 64"><path d="M57.073 16.373C81.158 51.952 31.179 75.829 9.971 54.62-20.143 19.232 28.798-19.369 57.073 16.373z" fill="#2b4184"/><path d="M8.04 14.58c.839 1.781 4.606.687 6.931-.106 1.794-.612 3.327 4.45 5.864 3.805.896-.228.771-4.51 2.021-5.789 1.238-1.268 5.103-.039 5.566-1.741.234-.859-4.117-2.696-4.652-4.106-.601-1.585-.233-4.938-1.437-5.231-1.148-.28-3.621 2.787-5.048 2.787-1.626-.001-4.325-2.872-6.212-1.79-1.737.996 1.362 4.228.984 6.329S7.365 13.146 8.04 14.58z" fill="#29267d"/><path d="M16.993 8.04c-2.008 1.61-3.294 1.687-2.042 3.481.973 1.394 2.847-.924 3.607-1.192 1.552-.548 2.53-2.72 1.814-3.636-1.417-1.814-2.6.569-3.379 1.348z" fill="#161070"/></svg>
